<?xml version="1.0" encoding="UTF-8" standalone="no"?>
<svg width="56px" height="45px" viewBox="0 0 56 45" version="1.1" xmlns="http://www.w3.org/2000/svg" xmlns:xlink="http://www.w3.org/1999/xlink">
    <!-- Generator: Sketch 42 (36781) - http://www.bohemiancoding.com/sketch -->
    <title>Preloader</title>
    <desc>Created with Sketch.</desc>
    <defs></defs>
    <g id="Finals" stroke="none" stroke-width="1" fill="none" fill-rule="evenodd">
        <g id="nb-calendar-list-country-select-2Ñ" transform="translate(-692.000000, -1475.000000)" fill="#A9B0BF">
            <g id="Event-List" transform="translate(180.000000, 350.000000)">
                <g id="List" transform="translate(60.000000, 85.000000)">
                    <g id="Preloader" transform="translate(452.000000, 1040.000000)">
                        <path d="M41.8005698,25.5787578 C40.3177664,25.5787578 37.8358974,25.5787578 35.8297892,24.5323077 C33.5135271,23.3242393 32.3874644,21.0311111 32.3874644,17.5217778 C32.3874644,17.0812764 32.0304046,16.724057 31.5897436,16.724057 C31.1490826,16.724057 30.7920228,17.0812764 30.7920228,17.5217778 C30.7920228,19.1700285 31.0297436,20.6099145 31.4941766,21.8436695 C30.8086154,22.4552023 29.9325584,22.920114 28.937641,23.1942108 C28.3548262,23.3547123 27.8291282,23.5527066 27.3579943,23.7859601 C27.3318291,23.7701652 27.3072593,23.7526154 27.2787009,23.7396923 C23.7917037,22.1468034 21.5384615,18.6416182 21.5384615,14.8095271 C21.5384615,11.1069858 23.6178006,7.74235897 26.8839886,6.07193162 C26.9253105,6.78158405 27.1450028,7.35865527 27.546416,7.78766952 C28.0113276,8.28480912 28.688433,8.5474188 29.5048205,8.5474188 L31.3215499,8.5474188 C32.378849,8.5474188 33.3922735,7.93381197 34.333265,6.72382906 L35.5574473,5.02723647 C35.5580855,5.02739601 35.5584046,5.02755556 35.5590427,5.02755556 C38.4692877,5.23623932 40.2005014,6.44095726 40.7045014,8.60836467 C41.4323419,11.7381425 43.6054929,13.5331738 46.6666667,13.5331738 L50.8148148,13.5331738 C51.832547,13.5331738 53.0758746,13.7423362 53.7762735,15.0887293 L52.2905983,15.0887293 C51.8499373,15.0887293 51.4928775,15.4459487 51.4928775,15.8864501 C51.4928775,16.3269516 51.8499373,16.6841709 52.2905983,16.6841709 L54.2461311,16.6841709 C54.296547,17.0528775 54.3247863,17.4622678 54.3247863,17.9206382 C54.3247863,22.8590085 49.8768547,25.5787578 41.8005698,25.5787578 L41.8005698,25.5787578 Z M29.2270541,32.1781425 C27.6212422,32.021151 26.0010712,30.8374929 26.0010712,28.547396 C26.0010712,26.5759088 27.0687407,25.3635328 29.3610712,24.7322165 C30.4376752,24.435943 31.4088205,23.9506097 32.2172308,23.3162621 C32.7153276,24.1087179 33.3415385,24.7831111 34.0990541,25.3333789 C33.2973447,26.254906 32.1731966,26.9380741 30.6201937,27.4541994 C30.202188,27.5931624 29.9759544,28.0446724 30.1147578,28.4628376 C30.2259601,28.7974017 30.5373903,29.0091168 30.8716353,29.0091168 C30.9549174,29.0091168 31.0399544,28.9960342 31.123396,28.9682735 C33.0586667,28.325151 34.4971168,27.3980399 35.4996923,26.1448205 C36.6732991,26.6802507 37.91551,26.9367977 39.0548148,27.0598063 C37.2811624,30.5077151 33.3740855,32.5848205 29.2270541,32.1781425 L29.2270541,32.1781425 Z M25.8525356,34.378735 C21.0907806,31.5452308 17.0823932,27.5499259 14.2326154,22.797584 C16.7832479,21.3131852 18.8960912,19.8557493 20.5403533,18.4431453 C21.4459259,21.126359 23.3328547,23.4233162 25.8680114,24.8151795 C24.8963875,25.7569687 24.4056296,27.0036467 24.4056296,28.547396 C24.4056296,30.3314188 25.1830883,31.8482051 26.4559316,32.7853675 C26.2612877,33.3281368 26.0601026,33.8590997 25.8525356,34.378735 L25.8525356,34.378735 Z M23.8015954,38.7594986 C23.7420855,38.6841937 23.6696524,38.6173447 23.5820627,38.5656524 C18.0101425,35.2870199 13.3377322,30.6203533 10.0447407,25.0602393 C10.5147578,24.8237949 11.0088661,24.5699601 11.5205242,24.2998519 C11.9736296,24.0608547 12.4130142,23.8223362 12.8441026,23.5844558 C15.8687407,28.6413675 20.1437265,32.8839658 25.2271225,35.8650484 C24.7803989,36.873208 24.3060741,37.8370142 23.8015954,38.7594986 L23.8015954,38.7594986 Z M24.845812,4.43054131 C24.8820285,4.0894359 25.0709288,3.03133903 26.0103248,3.03133903 L27.0724103,3.03133903 L26.9766838,4.29349288 C26.9179715,4.30434188 26.8595783,4.32013675 26.8024615,4.34502564 C26.076057,4.66108262 25.3956011,5.04845584 24.7652422,5.49406268 L24.845812,4.43054131 Z M28.4762393,5.6162735 L28.6748718,2.99480342 C28.7110883,2.65385755 28.8998291,1.5954416 29.8393846,1.5954416 L33.6239316,1.5954416 C34.0711339,1.5954416 34.6545869,1.68813675 34.8950199,2.12991453 C35.079453,2.46878632 35.0392479,2.96911681 34.7984957,3.35266097 L33.0653675,5.75539601 C32.4452194,6.54944729 31.858735,6.95197721 31.3215499,6.95197721 L29.5048205,6.95197721 C29.2514644,6.95197721 28.9079658,6.90794302 28.7114074,6.69782336 C28.4744843,6.44446724 28.4531054,5.96583476 28.4762393,5.6162735 L28.4762393,5.6162735 Z M50.8148148,11.9377322 L46.6666667,11.9377322 C45.0472934,11.9377322 42.9677949,11.2974815 42.2584615,8.2471567 C41.6469288,5.61739031 39.6020513,3.9597265 36.4654131,3.52050142 C36.6970712,2.7960114 36.6450598,2.00818234 36.2964558,1.36745299 C36.0186895,0.856752137 35.3020171,0 33.6239316,0 L29.8393846,0 C28.8242051,0 27.983567,0.542450142 27.5022222,1.43589744 L26.0103248,1.43589744 C24.5369345,1.43589744 23.4306553,2.57823362 23.2575499,4.27865527 L23.0565242,6.93155556 C23.0554074,6.94623362 23.0578006,6.96011396 23.0574815,6.97447293 C21.0949288,9.05333333 19.9430199,11.8380171 19.9430199,14.8095271 C19.9430199,15.448661 19.9987009,16.079339 20.1028832,16.6974131 C14.9349288,21.4645926 5.13668376,25.5987009 5.03664957,25.640661 C4.6302906,25.8108946 4.43867806,26.2781994 4.60891168,26.6845584 C4.7368661,26.9904046 5.0331396,27.174359 5.34504843,27.174359 C5.44779487,27.174359 5.55213675,27.154416 5.65280912,27.1122963 C5.72396581,27.0824615 6.88337322,26.5952137 8.60804558,25.7667009 C12.0414359,31.6053789 16.9335385,36.5045014 22.7726952,39.9409231 C22.8653903,39.9953276 22.9646268,40.0285128 23.0648205,40.0427123 C22.3953732,41.1536182 21.6783818,42.204057 20.907943,43.1984957 C20.6379943,43.5466211 20.7016524,44.0477493 21.0499373,44.3175385 C21.1952821,44.4301766 21.3672707,44.4847407 21.5378234,44.4847407 C21.7760228,44.4847407 22.0118291,44.3784843 22.1689801,44.1757037 C24.5094929,41.1548946 26.3819031,37.6634302 27.8870427,33.5191111 C28.2606952,33.6413219 28.6565242,33.7255613 29.0716581,33.7660855 C29.468604,33.8050142 29.8636353,33.824 30.2556353,33.824 C34.8441254,33.824 39.0141311,31.2132194 40.7703932,27.1659031 C41.1462792,27.1741994 41.4931282,27.1741994 41.8005698,27.1741994 C46.5768433,27.1741994 50.2259373,26.2624046 52.6465413,24.4641823 C54.7882621,22.873208 55.9202279,20.6105527 55.9202279,17.9206382 C55.9202279,15.6862222 55.2570028,11.9377322 50.8148148,11.9377322 L50.8148148,11.9377322 Z" id="Fill-1"></path>
                        <path d="M38.2905983,8.50753276 L35.5783476,8.50753276 C35.1376866,8.50753276 34.7806268,8.86475214 34.7806268,9.30525356 C34.7806268,9.74575499 35.1376866,10.1029744 35.5783476,10.1029744 L38.2905983,10.1029744 C38.7312593,10.1029744 39.0883191,9.74575499 39.0883191,9.30525356 C39.0883191,8.86475214 38.7312593,8.50753276 38.2905983,8.50753276" id="Fill-3"></path>
                        <path d="M15.994302,14.2776866 C15.994302,13.8371852 15.6372422,13.4799658 15.1965812,13.4799658 L0.797720798,13.4799658 C0.357059829,13.4799658 0,13.8371852 0,14.2776866 C0,14.718188 0.357059829,15.0754074 0.797720798,15.0754074 L15.1965812,15.0754074 C15.6372422,15.0754074 15.994302,14.718188 15.994302,14.2776866" id="Fill-5"></path>
                        <path d="M6.14245014,10.2890826 L15.994302,10.2890826 C16.434963,10.2890826 16.7920228,9.93186325 16.7920228,9.49136182 C16.7920228,9.0508604 16.434963,8.69364103 15.994302,8.69364103 L6.14245014,8.69364103 C5.70178917,8.69364103 5.34472934,9.0508604 5.34472934,9.49136182 C5.34472934,9.93186325 5.70178917,10.2890826 6.14245014,10.2890826" id="Fill-7"></path>
                        <path d="M11.194735,5.50275783 L18.6401823,5.50275783 C19.0808433,5.50275783 19.4379031,5.14553846 19.4379031,4.70503704 C19.4379031,4.26453561 19.0808433,3.90731624 18.6401823,3.90731624 L11.194735,3.90731624 C10.7540741,3.90731624 10.3970142,4.26453561 10.3970142,4.70503704 C10.3970142,5.14553846 10.7540741,5.50275783 11.194735,5.50275783" id="Fill-9"></path>
                    </g>
                </g>
            </g>
        </g>
    </g>
</svg>