<?xml version="1.0" encoding="UTF-8" standalone="no"?>
<svg width="18px" height="14px" viewBox="0 0 18 14" version="1.1" xmlns="http://www.w3.org/2000/svg" xmlns:xlink="http://www.w3.org/1999/xlink">
    <!-- Generator: Sketch 42 (36781) - http://www.bohemiancoding.com/sketch -->
    <title>Twitter</title>
    <desc>Created with Sketch.</desc>
    <defs></defs>
    <g id="Finals" stroke="none" stroke-width="1" fill="none" fill-rule="evenodd">
        <g id="nb-calendar-start-page-2a-spring" transform="translate(-689.000000, -1470.000000)" fill="#2C3238">
            <g id="Event" transform="translate(180.000000, 350.000000)">
                <g id="Socials" transform="translate(380.000000, 1106.000000)">
                    <path d="M144.555004,18.2337022 C144.483056,19.6065673 144.084234,20.9623017 143.473208,22.1976581 C141.668773,25.7741202 138.199818,27.7556047 134.211972,27.5466106 C132.337902,27.4483947 130.514175,26.8065332 128.99772,25.7218966 C129.258076,25.7573927 129.540224,25.7940308 129.801722,25.8077353 C131.370711,25.8899625 132.901734,25.4457674 134.172308,24.5508955 C132.713419,24.452587 131.457321,23.4034464 131.07279,21.9848069 C131.288421,22.0398104 131.505194,22.0730223 131.723109,22.0844428 C132.02819,22.1004314 132.335555,22.072837 132.645205,22.0016596 C131.049764,21.5902757 129.925464,20.1110152 130.0547,18.4789361 L130.056984,18.4353531 C130.522693,18.7219762 131.037695,18.9019258 131.603132,18.9534105 C130.656775,18.2482732 130.146156,17.1507961 130.206685,15.9958461 C130.238662,15.3856839 130.42318,14.783516 130.75567,14.2765084 C132.40772,16.5263734 134.932387,17.9697672 137.691914,18.2673474 C137.640244,18.0024232 137.632157,17.739783 137.645861,17.4782849 C137.746361,15.5606321 139.374644,14.0945202 141.292296,14.1950201 C142.229331,14.244128 143.124018,14.6843411 143.741218,15.4159307 C144.533706,15.3045037 145.289464,15.0600436 145.985558,14.7031998 C145.682946,15.4739896 145.101613,16.1427668 144.360794,16.519118 C145.061549,16.4902889 145.725572,16.3284266 146.372373,16.0782563 C145.878206,16.7516017 145.257858,17.3309287 144.557196,17.7749385 C144.570993,17.9286211 144.562999,18.0811617 144.555004,18.2337022 L144.555004,18.2337022 Z" id="Twitter"></path>
                </g>
            </g>
        </g>
    </g>
</svg>