<?xml version="1.0" encoding="UTF-8" standalone="no"?>
<svg width="18px" height="17px" viewBox="0 0 18 17" version="1.1" xmlns="http://www.w3.org/2000/svg" xmlns:xlink="http://www.w3.org/1999/xlink">
    <!-- Generator: Sketch 42 (36781) - http://www.bohemiancoding.com/sketch -->
    <title>Shape</title>
    <desc>Created with Sketch.</desc>
    <defs></defs>
    <g id="Finals" stroke="none" stroke-width="1" fill="none" fill-rule="evenodd">
        <g id="nb-calendar-start-page-2a-spring" transform="translate(-397.000000, -2773.000000)" fill="#A8ACB9">
            <g id="Subscribe" transform="translate(0.000000, 2606.000000)">
                <g id="Shape-19" transform="translate(397.000000, 167.000000)">
                    <path d="M9.00000994,11.0750141 C8.56940933,11.088835 8.14828359,10.9468027 7.81400994,10.6750141 L1.66400994,6.57501409 C1.58410889,6.52224631 1.5285989,6.43974547 1.50982022,6.34585203 C1.49104153,6.25195859 1.51055042,6.15445398 1.56400994,6.07501409 C1.61797099,5.99038469 1.70440029,5.93171034 1.80297,5.912791 C1.90153972,5.89387167 2.00355055,5.9163771 2.08500994,5.97501409 L8.23600994,10.0750141 C8.69974013,10.376167 9.29727976,10.376167 9.76100994,10.0750141 L15.9120099,5.97501409 C15.9934693,5.9163771 16.0954802,5.89387167 16.1940499,5.912791 C16.2926196,5.93171034 16.3790489,5.99038469 16.4330099,6.07501409 C16.4870135,6.15428871 16.5068438,6.25196019 16.4880321,6.34601852 C16.4692204,6.44007685 16.4133496,6.52260811 16.3330099,6.57501409 L10.1820099,10.6750141 C9.8487,10.9457305 9.42922124,11.0876861 9.00000994,11.0750141 L9.00000994,11.0750141 Z M16.1250099,16.9750141 L1.87500994,16.9750141 C1.3875317,16.985463 0.915918148,16.8015746 0.564176753,16.4639028 C0.212435357,16.1262311 0.00945856609,15.6625127 9.94411192e-06,15.1750141 L9.94411192e-06,6.27501409 C-0.00207543032,5.65827015 0.323960677,5.08694519 0.856009944,4.77501409 L7.78000994,0.375014088 C8.51941105,-0.125004696 9.48860884,-0.125004696 10.2280099,0.375014088 L17.1440099,4.77501409 C17.6757581,5.08724274 18.001686,5.65837807 18.0000099,6.27501409 L18.0000099,15.1750141 C17.9905613,15.6625127 17.7875845,16.1262311 17.4358431,16.4639028 C17.0841017,16.8015746 16.6124882,16.985463 16.1250099,16.9750141 L16.1250099,16.9750141 Z M9.00000994,0.675014088 C8.70451777,0.675985896 8.4190693,0.782364206 8.19500994,0.975014088 L1.26400994,5.37501409 C0.959176719,5.5760868 0.768305747,5.91029667 0.750009944,6.27501409 L0.750009944,15.1750141 C0.759870501,15.7881627 1.26179457,16.2789329 1.87500994,16.2750141 L16.1250099,16.2750141 C16.7382253,16.2789329 17.2401494,15.7881627 17.2500099,15.1750141 L17.2500099,6.27501409 C17.2317141,5.91029667 17.0408432,5.5760868 16.7360099,5.37501409 L9.81200994,0.975014088 C9.58469751,0.783231501 9.29741067,0.67709104 9.00000994,0.675014088 L9.00000994,0.675014088 Z M1.87500994,15.4750141 C1.76788808,15.4936182 1.65872504,15.4558455 1.58600994,15.3750141 C1.52006334,15.3049732 1.48751951,15.2098985 1.49671256,15.1141375 C1.50590562,15.0183766 1.55594273,14.9312296 1.63400994,14.8750141 L6.13400994,11.1750141 C6.20320017,11.1030821 6.29870267,11.0624325 6.39850994,11.0624325 C6.49831722,11.0624325 6.59381972,11.1030821 6.66300994,11.1750141 C6.72895655,11.245055 6.76150038,11.3401297 6.75230732,11.4358906 C6.74311427,11.5316516 6.69307716,11.6187986 6.61500994,11.6750141 L2.11500994,15.3750141 C2.06044628,15.4511624 1.96750035,15.4898899 1.87500994,15.4750141 L1.87500994,15.4750141 Z M16.1250099,15.4750141 C16.0325482,15.4896488 15.9397246,15.4509723 15.8850099,15.3750141 L11.3850099,11.6750141 C11.3069427,11.6187986 11.2569056,11.5316516 11.2477126,11.4358906 C11.2385195,11.3401297 11.2710633,11.245055 11.3370099,11.1750141 C11.4062002,11.1030821 11.5017027,11.0624325 11.6015099,11.0624325 C11.7013172,11.0624325 11.7968197,11.1030821 11.8660099,11.1750141 L16.3660099,14.8750141 C16.4437974,14.9314306 16.4936131,15.0185343 16.5027957,15.1141867 C16.5119783,15.209839 16.4796436,15.3048292 16.4140099,15.3750141 C16.3411867,15.4556824 16.232116,15.4934231 16.1250099,15.4750141 L16.1250099,15.4750141 Z" id="Shape"></path>
                </g>
            </g>
        </g>
    </g>
</svg>