<?xml version="1.0" encoding="UTF-8" standalone="no"?>
<svg width="17px" height="18px" viewBox="0 0 17 18" version="1.1" xmlns="http://www.w3.org/2000/svg" xmlns:xlink="http://www.w3.org/1999/xlink">
    <!-- Generator: Sketch 42 (36781) - http://www.bohemiancoding.com/sketch -->
    <title>Shape</title>
    <desc>Created with Sketch.</desc>
    <defs></defs>
    <g id="Finals" stroke="none" stroke-width="1" fill="none" fill-rule="evenodd" opacity="0.5">
        <g id="nb-calendar-list-2Ñ-spring" transform="translate(-1095.000000, -16.000000)" fill="#FFFFFF">
            <g id="Menu" transform="translate(0.000000, -1.000000)">
                <g id="Calendar" transform="translate(1095.000000, 15.000000)">
                    <path d="M13,2 L11,2 L11,3 L6,3 L6,2 L4,2 L4,3 L1.947,3 C0.209,3 0,5 0,5 L0,18 C0,18 0.441,20 1.922,20 L15,20 C16.653,20 17,18 17,18 L17,5 C17,5 16.7,3 15.034,3 L13,3 L13,2 Z M15,18 L2,18 L2,9 L15,9 L15,18 L15,18 Z M15,7 L2,7 L2,5 L4,5 L4,6 L6,6 L6,5 L11,5 L11,6 L13,6 L13,5 L15,5 L15,7 L15,7 Z" id="Shape"></path>
                </g>
            </g>
        </g>
    </g>
</svg>