<?xml version="1.0" encoding="UTF-8" standalone="no"?>
<svg width="20px" height="20px" viewBox="0 0 20 20" version="1.1" xmlns="http://www.w3.org/2000/svg" xmlns:xlink="http://www.w3.org/1999/xlink">
    <!-- Generator: Sketch 42 (36781) - http://www.bohemiancoding.com/sketch -->
    <title>Shape</title>
    <desc>Created with Sketch.</desc>
    <defs></defs>
    <g id="Mobile" stroke="none" stroke-width="1" fill="none" fill-rule="evenodd">
        <g id="nb-calendar-list-320-1a-copy" transform="translate(-54.000000, -284.000000)" fill-rule="nonzero" fill="#289D6F">
            <g id="Event-List" transform="translate(0.000000, 274.000000)">
                <g id="Filters">
                    <g id="Event" transform="translate(20.000000, 0.000000)">
                        <g id="Group" transform="translate(34.000000, 10.000000)">
                            <path d="M20,12.0547945 L20,7.94520548 L18.0821918,7.67123288 C18.0242833,7.00310029 17.788279,6.43576121 17.5342466,6.02739726 L18.3561644,4.38356164 L15.6164384,1.64383562 L13.9726027,2.46575342 C13.5582294,2.22373974 12.9960803,1.99347164 12.3287671,1.91780822 L12.0547945,0 L7.94520548,0 L7.67123288,1.91780822 C7.01593849,2.01068029 6.46935905,2.23821686 6.02739726,2.46575342 L4.38356164,1.64383562 L1.64383562,4.38356164 L2.46575342,6.02739726 C2.26252749,6.44777995 2.03307885,7.00200768 1.91780822,7.67123288 L0,7.94520548 L0,12.0547945 L1.91780822,12.3287671 C2.03034731,12.9887051 2.25515235,13.5344651 2.46575342,13.9726027 L1.64383562,15.6164384 L4.38356164,18.3561644 L6.02739726,17.5342466 C6.45952553,17.7571395 7.01074858,17.9876808 7.67123288,18.0821918 L7.94520548,20 L12.0547945,20 L12.3287671,18.0821918 C13.0015433,18.0046163 13.5686092,17.7716167 13.9726027,17.5342466 L15.6164384,18.3561644 L18.3561644,15.6164384 L17.5342466,13.9726027 C17.7962004,13.5470301 18.027288,12.9876125 18.0821918,12.3287671 L20,12.0547945 Z M10,16.3499999 C6.4928828,16.3499999 3.6500001,13.5068614 3.6500001,10 C3.6500001,6.4928828 6.4928828,3.6500001 10,3.6500001 C13.5068614,3.6500001 16.3499999,6.4928828 16.3499999,10 C16.3499999,13.5068614 13.5068614,16.3499999 10,16.3499999 Z" id="Shape"></path>
                        </g>
                    </g>
                </g>
            </g>
        </g>
    </g>
</svg>