<?xml version="1.0" encoding="UTF-8" standalone="no"?>
<svg width="26px" height="17px" viewBox="0 0 26 17" version="1.1" xmlns="http://www.w3.org/2000/svg" xmlns:xlink="http://www.w3.org/1999/xlink">
    <!-- Generator: Sketch 42 (36781) - http://www.bohemiancoding.com/sketch -->
    <title>GooglePlus</title>
    <desc>Created with Sketch.</desc>
    <defs></defs>
    <g id="Finals" stroke="none" stroke-width="1" fill="none" fill-rule="evenodd">
        <g id="nb-calendar-start-page-2a-spring" transform="translate(-798.000000, -1468.000000)" fill="#2C3238">
            <g id="Event" transform="translate(180.000000, 350.000000)">
                <g id="Socials" transform="translate(380.000000, 1106.000000)">
                    <path d="M261.083333,18.28125 L261.083333,15 L259,15 L259,18.28125 L256,18.28125 L256,20.625 L259,20.625 L259,24 L261.083333,24 L261.083333,20.625 L264,20.625 L264,18.28125 L261.083333,18.28125 L261.083333,18.28125 Z M246.619489,18.8168317 L246.619489,22.1831683 C246.619489,22.1831683 249.93108,22.1787921 251.279475,22.1787921 C250.549294,24.361104 249.413911,25.549505 246.619489,25.549505 C243.791529,25.549505 241.584342,23.2887574 241.584342,20.5 C241.584342,17.7112426 243.791529,15.450495 246.619489,15.450495 C248.114672,15.450495 249.080311,15.9687426 249.96607,16.6910743 C250.675087,15.9918861 250.61586,15.8922426 252.419723,14.2123564 C250.888441,12.8378812 248.853217,12 246.619489,12 C241.859056,12 238,15.8055594 238,20.5 C238,25.1943564 241.859056,29 246.619489,29 C253.735006,29 255.47418,22.890099 254.897613,18.8168317 L246.619489,18.8168317 L246.619489,18.8168317 Z" id="GooglePlus"></path>
                </g>
            </g>
        </g>
    </g>
</svg>