<?xml version="1.0" encoding="UTF-8" standalone="no"?>
<svg width="124px" height="30px" viewBox="0 0 124 30" version="1.1" xmlns="http://www.w3.org/2000/svg" xmlns:xlink="http://www.w3.org/1999/xlink">
    <!-- Generator: Sketch 42 (36781) - http://www.bohemiancoding.com/sketch -->
    <title>Logo</title>
    <desc>Created with Sketch.</desc>
    <defs></defs>
    <g id="Finals" stroke="none" stroke-width="1" fill="none" fill-rule="evenodd">
        <g id="nb-calendar-list-2Ñ-spring" transform="translate(-240.000000, -11.000000)" fill="#FFFFFF">
            <g id="Menu" transform="translate(0.000000, -1.000000)">
                <g id="Logo" transform="translate(240.000000, 12.000000)">
                    <g id="feet">
                        <path d="M27.3545455,10.7005909 L21.1641818,23.3521364 L32.259,12.4430455 L27.3545455,10.7005909 Z M19.7454545,25.7297727 C19.6617273,25.7297727 19.578,25.7046818 19.5062727,25.6525909 C19.3445455,25.5361364 19.2902727,25.3198636 19.3778182,25.1409545 L26.7801818,10.0130455 C26.8715455,9.8265 27.0886364,9.73677273 27.2844545,9.80768182 L33.1489091,11.8907727 C33.2817273,11.9379545 33.381,12.0500455 33.4115455,12.1877727 C33.4418182,12.3255 33.3992727,12.4689545 33.2989091,12.5679545 L20.0320909,25.6125 C19.953,25.6902273 19.8493636,25.7297727 19.7454545,25.7297727 L19.7454545,25.7297727 Z" id="Fill-4"></path>
                        <path d="M15.4030364,5.5872 L31.3518545,11.2522909 L20.8845818,1.22438182 L15.4030364,5.5872 Z M33.0119455,12.6852 C32.9661273,12.6852 32.9200364,12.6775636 32.8750364,12.6614727 L14.4348545,6.11138182 C14.2949455,6.06174545 14.1929455,5.93983636 14.1684,5.79338182 C14.1438545,5.64692727 14.2008545,5.49856364 14.3170364,5.40583636 L20.6546727,0.361472727 C20.8150364,0.234381818 21.0446727,0.244472727 21.1927636,0.386290909 L33.2950364,11.9807455 C33.4341273,12.1143818 33.4614,12.3268364 33.3602182,12.4907455 C33.2838545,12.6145636 33.1507636,12.6852 33.0119455,12.6852 L33.0119455,12.6852 Z" id="Fill-1"></path>
                        <path d="M12.5953091,8.53235455 L2.09258182,27.3475364 L17.0707636,13.0192636 L12.5953091,8.53235455 Z M0.409036364,29.9332636 C0.320945455,29.9332636 0.232854545,29.9049 0.158672727,29.8476273 C-0.00141818182,29.7238091 -0.0469636364,29.5015364 0.0520363636,29.3245364 L12.1453091,7.66044545 C12.2077636,7.54862727 12.3190364,7.47226364 12.4461273,7.45453636 C12.5745818,7.43871818 12.7014,7.48017273 12.7922182,7.57099091 L17.9451273,12.7372636 C18.0225818,12.8152636 18.0659455,12.9210818 18.0645818,13.0309909 C18.0632182,13.1409 18.0176727,13.2456273 17.9383091,13.3219909 L0.691854545,29.8198091 C0.613036364,29.8948091 0.511309091,29.9332636 0.409036364,29.9332636 L0.409036364,29.9332636 Z" id="Fill-6"></path>
                    </g>
                    <polygon id="Fill-9" points="42.2501182 14.2629 46.7746636 14.2629 46.7746636 10.6776273 47.7537545 10.6776273 47.7537545 19.5017182 46.7746636 19.5017182 46.7746636 15.1888091 42.2501182 15.1888091 42.2501182 19.5017182 41.2713 19.5017182 41.2713 10.6776273 42.2501182 10.6776273"></polygon>
                    <path d="M53.2026273,15.0962727 C53.2026273,17.1204545 54.8035364,18.7344545 56.7876273,18.7344545 C58.7722636,18.7344545 60.3731727,17.1204545 60.3731727,15.0962727 C60.3731727,13.0720909 58.7722636,11.4583636 56.7876273,11.4583636 C54.8035364,11.4583636 53.2026273,13.0720909 53.2026273,15.0962727 M52.1970818,15.0962727 C52.1970818,12.4639091 54.2477182,10.5321818 56.7876273,10.5321818 C59.3278091,10.5321818 61.3787182,12.4639091 61.3787182,15.0962727 C61.3787182,17.7155455 59.3411727,19.6603636 56.7876273,19.6603636 C54.2346273,19.6603636 52.1970818,17.7155455 52.1970818,15.0962727" id="Fill-11"></path>
                    <polygon id="Fill-13" points="65.8221 10.6777636 69.8437364 10.6777636 69.8437364 11.6036727 66.8009182 11.6036727 66.8009182 19.5018545 65.8221 19.5018545"></polygon>
                    <polygon id="Fill-15" points="79.9498636 12.7679727 73.8115909 19.8984273 73.8115909 10.6777909 74.7904091 10.6777909 74.7904091 17.4378818 80.9289545 10.3071545 80.9289545 19.5016091 79.9498636 19.5016091"></polygon>
                    <path d="M86.8279636,18.5756727 L87.9657818,18.5756727 C88.3626,18.5756727 89.0902364,18.5756727 89.5928727,18.0861273 C89.8309636,17.8614 90.0559636,17.4645818 90.0559636,16.8294 C90.0559636,16.4061273 89.9498727,15.8238545 89.3414182,15.4930364 C88.9315091,15.2683091 88.4021455,15.2683091 87.8596909,15.2683091 L86.8279636,15.2683091 L86.8279636,18.5756727 Z M85.8488727,10.6777636 L90.2277818,10.6777636 L90.2277818,11.6036727 L86.8279636,11.6036727 L86.8279636,14.3424 L88.0184182,14.3424 C89.1033273,14.3424 91.0612364,14.5671273 91.0612364,16.8294 C91.0612364,18.5096727 89.9367818,19.5018545 88.2038727,19.5018545 L85.8488727,19.5018545 L85.8488727,10.6777636 Z" id="Fill-17"></path>
                    <path d="M95.9022818,15.0962727 C95.9022818,17.1204545 97.5029182,18.7344545 99.4875545,18.7344545 C101.471918,18.7344545 103.072555,17.1204545 103.072555,15.0962727 C103.072555,13.0720909 101.471918,11.4583636 99.4875545,11.4583636 C97.5029182,11.4583636 95.9022818,13.0720909 95.9022818,15.0962727 M94.8970091,15.0962727 C94.8970091,12.4639091 96.9473727,10.5321818 99.4875545,10.5321818 C102.027464,10.5321818 104.0781,12.4639091 104.0781,15.0962727 C104.0781,17.7155455 102.040827,19.6603636 99.4875545,19.6603636 C96.9340091,19.6603636 94.8970091,17.7155455 94.8970091,15.0962727" id="Fill-19"></path>
                    <polygon id="Fill-21" points="108.521509 10.6777636 112.543145 10.6777636 112.543145 11.6036727 109.5006 11.6036727 109.5006 19.5018545 108.521509 19.5018545"></polygon>
                    <polygon id="Fill-23" points="122.649518 12.7679727 116.510973 19.8984273 116.510973 10.6777909 117.490064 10.6777909 117.490064 17.4378818 123.628609 10.3071545 123.628609 19.5016091 122.649518 19.5016091"></polygon>
                </g>
            </g>
        </g>
    </g>
</svg>