<?xml version="1.0" encoding="UTF-8" standalone="no"?>
<svg width="203px" height="28px" viewBox="0 0 203 28" version="1.1" xmlns="http://www.w3.org/2000/svg" xmlns:xlink="http://www.w3.org/1999/xlink">
    <!-- Generator: Sketch 42 (36781) - http://www.bohemiancoding.com/sketch -->
    <title>Logo</title>
    <desc>Created with Sketch.</desc>
    <defs>
        <polygon id="path-1" points="0 27.5577836 202.814557 27.5577836 202.814557 -0.000183606558 0 -0.000183606558"></polygon>
    </defs>
    <g id="Mobile" stroke="none" stroke-width="1" fill="none" fill-rule="evenodd">
        <g id="nb-calendar-list-320-1a-copy" transform="translate(-52.000000, -208.000000)">
            <g id="Header" transform="translate(-535.000000, 69.000000)">
                <g id="Logo" transform="translate(587.000000, 139.000000)">
                    <g id="logo">
                        <path d="M65.6084525,13.2018164 C63.5695016,13.2018164 62.4536328,14.3176852 61.9202557,14.8267344 L61.9202557,13.6608328 L58.9384852,13.6608328 L58.9384852,27.1205705 L62.1630754,27.1205705 L62.1630754,20.7186689 C62.1630754,19.5793902 62.1630754,18.1729639 62.7469443,17.3490295 C63.328059,16.4521115 64.3718623,16.1588 64.952518,16.1588 C67.6676,16.1588 67.6676,19.3627344 67.6676,20.4763082 L67.6676,27.1205705 L70.8944852,27.1205705 L70.8944852,19.8456197 C70.8944852,18.8027344 70.8944852,16.5489639 69.656518,15.0686361 C68.5397311,13.7094885 66.772518,13.2018164 65.6084525,13.2018164 Z" id="Fill-1" fill="#FFFFFF"></path>
                        <path d="M75.0052984,19.2412328 C75.612577,16.7437246 77.6244459,16.0868721 78.8132984,16.0868721 C80.4134295,16.0868721 82.0860852,17.0824787 82.4523803,19.2412328 L75.0052984,19.2412328 Z M78.7880525,13.1271344 C74.6426754,13.1271344 71.7072656,16.6211672 71.7072656,20.4273311 C71.7072656,24.3569705 74.8102164,27.5576918 78.8132984,27.5576918 C81.9649049,27.5576918 84.5353967,25.3011672 85.3115934,22.8766426 L81.9180852,22.8766426 C81.3089705,23.9925115 80.2445115,24.5979541 78.8132984,24.5979541 C76.5094951,24.5979541 75.2472,22.7081836 75.1030689,21.8337574 L85.5544131,21.8337574 C85.6512656,21.3981508 85.7499541,20.8395279 85.7499541,20.2102164 C85.7499541,16.8134951 83.057823,13.1271344 78.7880525,13.1271344 L78.7880525,13.1271344 Z" id="Fill-3" fill="#FFFFFF"></path>
                        <polygon id="Fill-5" fill="#FFFFFF" points="97.9848066 21.8841574 97.9375279 21.8841574 95.7549049 13.6608787 93.1830361 13.6608787 90.9765443 21.8841574 90.9288066 21.8841574 88.4799541 13.6608787 85.034577 13.6608787 89.8877574 27.1206164 91.8748393 27.1206164 94.4205443 18.3910426 94.467823 18.3910426 96.9910361 27.1206164 98.9813311 27.1206164 103.903823 13.6608787 100.457987 13.6608787"></polygon>
                        <path d="M117.224066,24.5979082 C115.332459,24.5979082 113.175082,23.191941 113.175082,20.2101705 C113.175082,18.2446623 114.700852,16.1588918 117.174492,16.1588918 C119.213443,16.1588918 121.105508,17.7360721 121.105508,20.3538426 C121.105508,22.9762033 119.333705,24.5979082 117.224066,24.5979082 M117.564656,13.2019082 C116.060918,13.2019082 114.483738,13.7582361 113.367869,14.8741049 L113.367869,9.17495738 L110.14282,9.17495738 L110.14282,27.1206623 L113.100721,27.1206623 L113.100721,25.4971213 C113.899869,26.3926623 115.041902,27.5576459 117.635803,27.5576459 C122.560131,27.5576459 124.32918,23.023023 124.32918,20.3299738 C124.32918,16.7661705 121.663213,13.2019082 117.564656,13.2019082" id="Fill-7" fill="#FFFFFF"></path>
                        <path d="M132.399836,24.5979082 C130.094656,24.5979082 128.39859,22.7333836 128.39859,20.4534492 C128.39859,18.4397443 129.75682,16.1588918 132.399836,16.1588918 C134.31623,16.1588918 136.329016,17.565318 136.329016,20.3538426 C136.329016,22.8522689 134.629738,24.5979082 132.399836,24.5979082 L132.399836,24.5979082 Z M136.42541,15.3583672 L136.375836,15.3583672 C136.277148,15.1642033 134.653607,13.2019082 131.915574,13.2019082 C128.181016,13.2019082 125.174459,16.1841377 125.174459,20.3065639 C125.174459,24.7920721 128.251246,27.5576459 131.720951,27.5576459 C133.417934,27.5576459 135.406393,26.6625639 136.42541,25.4498426 L136.42541,27.1206623 L139.383311,27.1206623 L139.383311,13.6609246 L136.42541,13.6609246 L136.42541,15.3583672 Z" id="Fill-9" fill="#FFFFFF"></path>
                        <mask id="mask-2" fill="white">
                            <use xlink:href="#path-1"></use>
                        </mask>
                        <g id="Clip-12"></g>
                        <polygon id="Fill-11" fill="#FFFFFF" mask="url(#mask-2)" points="141.099803 27.1208 144.32623 27.1208 144.32623 9.17601311 141.099803 9.17601311"></polygon>
                        <path d="M152.519902,24.5979082 C150.216098,24.5979082 148.518197,22.7333836 148.518197,20.4534492 C148.518197,18.4397443 149.875508,16.1588918 152.519902,16.1588918 C154.435377,16.1588918 156.447705,17.565318 156.447705,20.3538426 C156.447705,22.8522689 154.751639,24.5979082 152.519902,24.5979082 L152.519902,24.5979082 Z M156.545475,15.3583672 L156.496361,15.3583672 C156.399508,15.1642033 154.775049,13.2019082 152.032885,13.2019082 C148.29741,13.2019082 145.289475,16.1841377 145.289475,20.3065639 C145.289475,24.7920721 148.37177,27.5576459 151.838721,27.5576459 C153.538,27.5576459 155.525082,26.6625639 156.545475,25.4498426 L156.545475,27.1206623 L159.50659,27.1206623 L159.50659,13.6609246 L156.545475,13.6609246 L156.545475,15.3583672 Z" id="Fill-13" fill="#FFFFFF" mask="url(#mask-2)"></path>
                        <path d="M167.889331,13.2018164 C165.851757,13.2018164 164.73543,14.3176852 164.20297,14.8267344 L164.20297,13.6608328 L161.218905,13.6608328 L161.218905,27.1205705 L164.444872,27.1205705 L164.444872,20.7186689 C164.444872,19.5793902 164.444872,18.1729639 165.026446,17.3490295 C165.607561,16.4521115 166.651823,16.1588 167.232938,16.1588 C169.948479,16.1588 169.948479,19.3627344 169.948479,20.4763082 L169.948479,27.1205705 L173.1772,27.1205705 L173.1772,19.8456197 C173.1772,18.8027344 173.1772,16.5489639 171.938774,15.0686361 C170.822905,13.7094885 169.052938,13.2018164 167.889331,13.2018164" id="Fill-14" fill="#FFFFFF" mask="url(#mask-2)"></path>
                        <path d="M181.50743,16.1589836 C183.496348,16.1589836 184.24638,17.4460656 184.636085,18.1231148 L188.272413,18.1231148 C186.890315,13.9759016 183.204872,13.202 181.50743,13.202 C177.796282,13.202 174.375692,16.2094754 174.375692,20.3300656 C174.375692,24.7921639 178.087298,27.5577377 181.531298,27.5577377 C184.684741,27.5577377 187.181331,25.7395738 188.272413,22.7330164 L184.636085,22.7330164 C183.787364,24.0907869 182.719692,24.598 181.651561,24.598 C179.227495,24.598 177.602118,22.6816066 177.602118,20.3778033 C177.602118,17.6136066 179.543298,16.1589836 181.50743,16.1589836" id="Fill-15" fill="#FFFFFF" mask="url(#mask-2)"></path>
                        <path d="M192.070177,19.2412328 C192.676079,16.7437246 194.690243,16.0868721 195.877718,16.0868721 C197.478767,16.0868721 199.150046,17.0824787 199.514964,19.2412328 L192.070177,19.2412328 Z M202.814374,20.2102164 C202.814374,16.8134951 200.121784,13.1271344 195.85339,13.1271344 C191.705259,13.1271344 188.771685,16.6211672 188.771685,20.4273311 C188.771685,24.3569705 191.875554,27.5576918 195.877718,27.5576918 C199.032079,27.5576918 201.599357,25.3011672 202.374636,22.8766426 L198.981587,22.8766426 C198.374767,23.9925115 197.308013,24.5979541 195.877718,24.5979541 C193.573456,24.5979541 192.312997,22.7081836 192.165652,21.8337574 L202.62021,21.8337574 C202.715226,21.3981508 202.814374,20.8395279 202.814374,20.2102164 L202.814374,20.2102164 Z" id="Fill-16" fill="#FFFFFF" mask="url(#mask-2)"></path>
                        <path d="M47.8811934,8.18674098 C47.2133246,9.81487213 45.3818492,10.6167738 43.6288656,10.6259541 L40.9922754,10.6461508 L44.0190295,5.39087213 L46.5711607,5.39362623 C47.6705049,5.38811803 48.4999475,6.67611803 47.8811934,8.18674098 M42.4969311,18.713823 C41.7248656,20.7091672 39.2135869,21.4077902 37.8140459,21.4077902 L34.7900459,21.4073311 L37.9641443,15.9046426 L40.9789639,15.9037246 C41.8960787,15.9023475 43.2120787,16.8603148 42.4969311,18.713823 M50.1170623,0.000183606558 L34.6583082,0.00110163934 L32.7084066,3.38588852 L41.0450623,3.96929836 L40.7306361,4.52975738 L31.7178492,5.10765902 L29.0560131,9.72765902 L37.4188328,10.2711344 L37.0970623,10.8260852 L8.56919344,12.6777574 L7.30047213,14.880577 L33.7994885,16.5541508 L33.4813902,17.1077246 L18.7281443,17.9692984 L19.8463082,22.1536918 L30.2136525,22.7852984 L29.8891279,23.3448393 L20.3296525,24.0163803 L21.2302426,27.5494295 L39.4798164,27.5407082 C43.8730623,27.5374951 51.7736525,24.6342164 52.6903082,18.5311344 C53.2076197,15.0921836 50.2102426,13.7647082 49.0080787,13.620118 C54.6760131,12.024118 56.6070951,8.2124459 57.0192918,6.69815082 C58.3848656,1.69854426 54.869718,0.000183606558 50.1170623,0.000183606558" id="Fill-17" fill="#FFFFFF" mask="url(#mask-2)"></path>
                        <polygon id="Fill-18" fill="#FFFFFF" mask="url(#mask-2)" points="26.4096459 0.010052459 15.8701705 0.00133114754 14.6014492 2.20506885 27.2055803 2.99687213"></polygon>
                        <polygon id="Fill-19" fill="#FFFFFF" mask="url(#mask-2)" points="27.8055148 5.35800656 12.2196131 6.33938361 10.9508918 8.5426623 28.9585639 9.72784262"></polygon>
                        <polygon id="Fill-20" fill="#FFFFFF" mask="url(#mask-2)" points="3.65202623 21.2189508 16.3410754 21.9336393 18.6352393 17.974623 4.92120656 19.0156721"></polygon>
                        <polygon id="Fill-21" fill="#FFFFFF" mask="url(#mask-2)" points="4.59016392e-05 27.5577377 13.1146033 27.5407541 14.9424066 24.3960328 1.27060328 25.354"></polygon>
                    </g>
                </g>
            </g>
        </g>
    </g>
</svg>